<?xml version="1.0" encoding="utf-8"?>
<!-- Generator: Adobe Illustrator 22.0.1, SVG Export Plug-In . SVG Version: 6.00 Build 0)  -->
<svg version="1.1" id="Layer_1" xmlns="http://www.w3.org/2000/svg" xmlns:xlink="http://www.w3.org/1999/xlink" x="0px" y="0px"
	 viewBox="0 0 70 43.7" style="enable-background:new 0 0 70 43.7;" xml:space="preserve">
<style type="text/css">
	.st0{fill:#323C4B;}
	.st1{fill:#B93219;}
</style>
<path class="st0" d="M35,27.7L1.9,7.4C0,6.3-0.6,3.8,0.5,1.9S4.1-0.6,6,0.5c0,0,0.1,0,0.1,0.1L35,18.3L63.9,0.6
	c1.9-1.1,4.4-0.5,5.5,1.4s0.5,4.3-1.3,5.4L35,27.7z"/>
<path class="st1" d="M35,43.7L1.9,23.4c-1.9-1.2-2.4-3.7-1.2-5.5s3.6-2.4,5.4-1.3L35,34.3l28.9-17.7c1.9-1.1,4.4-0.5,5.5,1.4
	s0.5,4.3-1.3,5.4L35,43.7z"/>
</svg>
