<svg version="1" xmlns="http://www.w3.org/2000/svg" width="1962.667" height="1962.667" viewBox="0 0 1472.000000 1472.000000"><path d="M262 494.1v459.4L491.5 724C617.7 597.8 721 494 721 493.4c0-.9-442.7-443.7-454.2-454.3l-4.8-4.4v459.4zM980 263.7C854 389.5 751 492.8 751 493.4c0 .6 103.3 104.4 229.5 230.6L1210 953.5V494.2c0-252.5-.2-459.2-.5-459.2S1105.9 137.9 980 263.7zM496 748.5L266.5 978l229.8 229.8L726 1437.5V978.2c0-252.5-.1-459.2-.3-459.2-.1 0-103.5 103.3-229.7 229.5zM587 925c0 25.3-.1 46-.3 46-.1 0-20.9-20.7-46.2-46l-46-46H587v46zM746 978v459.5l229.7-229.8L1205.5 978 975.7 748.3 746 518.5V978zm179.5-53c-25.3 25.3-46.3 46-46.7 46-.5 0-.8-20.7-.8-46v-46h93.5l-46 46z"/></svg>