<?xml version="1.0" encoding="UTF-8"?>
<!DOCTYPE svg  PUBLIC '-//W3C//DTD SVG 1.1//EN'  'http://www.w3.org/Graphics/SVG/1.1/DTD/svg11.dtd'>
<svg width="512px" height="512px" enable-background="new 0 0 430.117 430.118" version="1.1" viewBox="0 0 430.117 430.118" xml:space="preserve" xmlns="http://www.w3.org/2000/svg">
	<path d="m398.36 0h-366.57c-17.553 0-31.78 13.793-31.78 30.817v368.47c0 17.025 14.232 30.83 31.78 30.83h366.57c17.549 0 31.76-13.814 31.76-30.83v-368.47c0-17.019-14.211-30.817-31.76-30.817zm-267.96 360.04h-64.987v-194.19h64.987v194.19zm-32.487-220.72h-0.437c-21.793 0-35.92-14.904-35.92-33.563 0-19.035 14.542-33.535 36.767-33.535 22.227 0 35.899 14.496 36.331 33.535 0 18.663-14.099 33.563-36.741 33.563zm266.75 220.72h-64.966v-103.9c0-26.107-9.413-43.921-32.907-43.921-17.973 0-28.642 12.018-33.327 23.621-1.736 4.144-2.166 9.94-2.166 15.728v108.47h-64.954s0.85-175.98 0-194.19h64.964v27.531c8.624-13.229 24.035-32.1 58.534-32.1 42.76 0 74.822 27.739 74.822 87.414v111.35zm-133.78-166.05c0.111-0.182 0.266-0.401 0.42-0.614v0.614h-0.42z" fill="#bebec3"/>
</svg>
