<?xml version="1.0" encoding="UTF-8"?>
<!DOCTYPE svg  PUBLIC '-//W3C//DTD SVG 1.1//EN'  'http://www.w3.org/Graphics/SVG/1.1/DTD/svg11.dtd'>
<svg width="512px" height="512px" enable-background="new 0 0 382.117 382.117" version="1.1" viewBox="0 0 382.117 382.117" xml:space="preserve" xmlns="http://www.w3.org/2000/svg">
<path d="m336.76 45.945h-291.41c-25.008 0-45.354 19.539-45.354 43.555v203.12c0 24.016 20.346 43.555 45.354 43.555h291.41c25.008 0 45.353-19.539 45.353-43.555v-203.12c0-24.016-20.345-43.555-45.353-43.555zm0 251.78h-291.41c-3.676 0-6.9-2.384-6.9-5.103v-176.26l131.8 111.27c2.702 2.282 6.138 3.538 9.676 3.538l22.259 1e-3c3.536 0 6.974-1.257 9.677-3.539l131.8-111.27v176.26c-2e-3 2.717-3.227 5.101-6.902 5.101zm-145.7-104.73l-128.19-108.59h256.38l-128.19 108.59z" fill="#bebec3"/>
</svg>
